# Blender v2.79 (sub 0) OBJ File: 'arrow.blend'
# www.blender.org
#mtllib arrow.mtl
o Cube
v -0.01 0.00 -0.01
v  0.01 0.00 -0.01
v  0.01 0.00  0.01
v -0.01 0.00  0.01
v -0.01 0.80 -0.01
v  0.01 0.80 -0.01
v  0.01 0.80  0.01
v -0.01 0.80  0.01
v -0.00 1.00 -0.01
v -0.00 1.00  0.01
v -0.11 0.75 -0.01
v -0.11 0.75  0.01
v  0.11 0.75  0.01
v  0.11 0.75 -0.01
vn  0.0000 -1.0000  0.0000
vn  0.0000  0.0000 -1.0000
vn  0.0000  0.0000 -1.0000
vn  1.0000 -0.0000 -0.0000
vn -0.0000 -0.0000  1.0000
vn -1.0000  0.0000 -0.0000
vn -0.9153  0.4027 -0.0000
vn  0.5145 -0.8575  0.0000
vn  0.9153  0.4027  0.0000
vn -0.5145 -0.8575 -0.0000
#usemtl Material
s off
f 2//1 4//1 1//1
f 6//2 5//2 9//2
f 1//3 6//3 2//3
f 6//4 3//4 2//4
f 7//5 4//5 3//5
f 1//6 8//6 5//6
f 8//5 7//5 10//5
f 11//7 10//7 9//7
f 8//8 11//8 5//8
f 10//5 12//5 8//5
f 5//3 11//3 9//3
f 14//9 10//9 13//9
f 14//10 7//10 6//10
f 9//3 14//3 6//3
f 7//5 13//5 10//5
f 2//1 3//1 4//1
f 1//2 5//2 6//2
f 6//4 7//4 3//4
f 7//5 8//5 4//5
f 1//6 4//6 8//6
f 11//7 12//7 10//7
f 8//8 12//8 11//8
f 14//9 9//9 10//9
f 14//10 13//10 7//10
